<svg width="920" height="320" viewBox="0 0 920 320" fill="none" xmlns="http://www.w3.org/2000/svg" role="img" aria-labelledby="title desc">
  <title id="title">Campfire developer scene</title>
  <desc id="desc">A dark campfire scene with a small developer character walking around the fire.</desc>
  <defs>
    <linearGradient id="sky" x1="0" y1="0" x2="0" y2="320" gradientUnits="userSpaceOnUse">
      <stop offset="0" stop-color="#070A10" />
      <stop offset="0.56" stop-color="#111827" />
      <stop offset="1" stop-color="#0B0F17" />
    </linearGradient>
    <radialGradient id="fireGlow" cx="0" cy="0" r="1" gradientUnits="userSpaceOnUse" gradientTransform="translate(460 226) rotate(90) scale(92 190)">
      <stop offset="0" stop-color="#F59E0B" stop-opacity="0.55" />
      <stop offset="0.45" stop-color="#F97316" stop-opacity="0.18" />
      <stop offset="1" stop-color="#111827" stop-opacity="0" />
    </radialGradient>
    <filter id="softGlow" x="-40%" y="-40%" width="180%" height="180%">
      <feGaussianBlur stdDeviation="5" result="blur" />
      <feMerge>
        <feMergeNode in="blur" />
        <feMergeNode in="SourceGraphic" />
      </feMerge>
    </filter>
    <filter id="shadow" x="-30%" y="-30%" width="160%" height="160%">
      <feDropShadow dx="0" dy="10" stdDeviation="10" flood-color="#000000" flood-opacity="0.45" />
    </filter>
  </defs>

  <rect width="920" height="320" rx="22" fill="url(#sky)" />
  <rect x="18" y="18" width="884" height="284" rx="18" stroke="#30363D" stroke-width="2" />

  <g opacity="0.88">
    <circle cx="112" cy="58" r="1.7" fill="#E5E7EB"><animate attributeName="opacity" values="0.25;1;0.25" dur="4.4s" repeatCount="indefinite" /></circle>
    <circle cx="176" cy="104" r="1.3" fill="#CBD5E1"><animate attributeName="opacity" values="1;0.25;1" dur="5.2s" repeatCount="indefinite" /></circle>
    <circle cx="274" cy="48" r="1.4" fill="#94A3B8"><animate attributeName="opacity" values="0.3;1;0.3" dur="3.8s" repeatCount="indefinite" /></circle>
    <circle cx="648" cy="62" r="1.7" fill="#E5E7EB"><animate attributeName="opacity" values="1;0.2;1" dur="4.8s" repeatCount="indefinite" /></circle>
    <circle cx="786" cy="96" r="1.2" fill="#94A3B8"><animate attributeName="opacity" values="0.25;1;0.25" dur="5.1s" repeatCount="indefinite" /></circle>
    <path d="M759 45a18 18 0 1 1-18-18 14 14 0 0 0 18 18Z" fill="#E5E7EB" opacity="0.9" />
  </g>

  <path d="M34 216C86 182 122 181 176 214C226 164 280 164 336 215C392 180 446 180 500 216C554 170 612 170 674 218C744 176 806 184 886 219V302H34V216Z" fill="#111827" />
  <path d="M34 232C105 205 170 208 246 232C335 208 421 209 506 233C593 205 686 208 767 233C808 220 848 219 886 232V302H34V232Z" fill="#161B22" />
  <ellipse cx="460" cy="258" rx="332" ry="36" fill="#090D14" opacity="0.72" />
  <ellipse cx="460" cy="236" rx="178" ry="62" fill="url(#fireGlow)">
    <animate attributeName="opacity" values="0.55;0.95;0.62;0.88;0.55" dur="2.6s" repeatCount="indefinite" />
  </ellipse>

  <g transform="translate(460 226)" filter="url(#softGlow)">
    <g>
      <animateTransform attributeName="transform" type="scale" values="1 1;1.08 0.92;0.96 1.06;1 1" dur="1.25s" repeatCount="indefinite" />
      <path d="M0-72C30-39 42-11 24 22C11 45-18 42-30 20C-43-3-27-36 0-72Z" fill="#F97316" />
      <path d="M0-48C18-23 24-2 11 20C2 35-17 32-23 16C-29-2-17-26 0-48Z" fill="#FACC15" />
      <path d="M8-26C18-10 19 4 10 17C3 27-9 23-12 12C-16 0-7-15 8-26Z" fill="#FFF7AD" opacity="0.95" />
    </g>
  </g>

  <g transform="translate(430 256) rotate(12)">
    <rect x="-44" y="-8" width="90" height="16" rx="8" fill="#7C2D12" />
    <rect x="-39" y="-5" width="80" height="10" rx="5" fill="#A16207" opacity="0.65" />
  </g>
  <g transform="translate(490 256) rotate(-12)">
    <rect x="-44" y="-8" width="90" height="16" rx="8" fill="#7C2D12" />
    <rect x="-39" y="-5" width="80" height="10" rx="5" fill="#A16207" opacity="0.65" />
  </g>

  <g filter="url(#shadow)">
    <g>
      <animateTransform attributeName="transform" type="translate" values="156 222;268 214;382 225;538 214;686 224;566 214;430 226;282 214;156 222" dur="13s" repeatCount="indefinite" />
      <ellipse cx="0" cy="39" rx="28" ry="7" fill="#020617" opacity="0.48" />
      <g>
        <animateTransform attributeName="transform" type="translate" values="0 0;0 -4;0 0" dur="0.8s" repeatCount="indefinite" />
        <rect x="-17" y="-1" width="34" height="42" rx="10" fill="#111827" stroke="#475569" stroke-width="2" />
        <rect x="-12" y="7" width="24" height="18" rx="4" fill="#1F2937" stroke="#64748B" stroke-width="1.5" />
        <path d="M-9 16h18M-6 21h12" stroke="#38BDF8" stroke-width="1.5" stroke-linecap="round" opacity="0.9" />
        <circle cx="0" cy="-18" r="18" fill="#F4C7A1" stroke="#0F172A" stroke-width="2" />
        <path d="M-17-21c5-15 28-18 35 0-12-6-24-5-35 0Z" fill="#111827" />
        <path d="M-7-17h3M6-17h3" stroke="#0F172A" stroke-width="2" stroke-linecap="round" />
        <path d="M-5-9c4 3 9 3 13 0" stroke="#0F172A" stroke-width="1.8" stroke-linecap="round" />
        <g stroke="#94A3B8" stroke-width="5" stroke-linecap="round">
          <line x1="-13" y1="38" x2="-23" y2="54">
            <animate attributeName="x2" values="-23;-14;-23" dur="0.8s" repeatCount="indefinite" />
          </line>
          <line x1="13" y1="38" x2="24" y2="54">
            <animate attributeName="x2" values="24;15;24" dur="0.8s" repeatCount="indefinite" />
          </line>
        </g>
        <g stroke="#64748B" stroke-width="4" stroke-linecap="round">
          <line x1="-18" y1="11" x2="-31" y2="27">
            <animate attributeName="x2" values="-31;-27;-31" dur="1.2s" repeatCount="indefinite" />
          </line>
          <line x1="18" y1="11" x2="31" y2="25">
            <animate attributeName="x2" values="31;27;31" dur="1.2s" repeatCount="indefinite" />
          </line>
        </g>
      </g>
    </g>
  </g>

  <g opacity="0.92">
    <rect x="56" y="48" width="182" height="78" rx="14" fill="#0B1220" stroke="#30363D" />
    <circle cx="76" cy="69" r="4" fill="#F97316" />
    <circle cx="91" cy="69" r="4" fill="#FACC15" />
    <circle cx="106" cy="69" r="4" fill="#22C55E" />
    <text x="76" y="97" fill="#CBD5E1" font-family="ui-monospace, SFMono-Regular, Menlo, monospace" font-size="16">npm run build</text>
    <path d="M76 107h98" stroke="#38BDF8" stroke-width="2" stroke-linecap="round">
      <animate attributeName="stroke-dasharray" values="0 120;120 0;0 120" dur="4s" repeatCount="indefinite" />
    </path>
  </g>

  <text x="460" y="60" text-anchor="middle" fill="#F8FAFC" font-family="ui-sans-serif, system-ui, -apple-system, BlinkMacSystemFont, Segoe UI, sans-serif" font-size="34" font-weight="800" letter-spacing="4">KIM WOOJIN</text>
  <text x="460" y="91" text-anchor="middle" fill="#94A3B8" font-family="ui-monospace, SFMono-Regular, Menlo, monospace" font-size="15">Frontend campfire: build, verify, improve</text>
</svg>
